HIERARCHY
ROOT Hips
{
  OFFSET 5.80788e-005 67.184 3.4734
  CHANNELS 6 Xposition Yposition Zposition Zrotation Xrotation Yrotation
  JOINT Chest
  {
    OFFSET 0 8.7983 -4.7612
    CHANNELS 3 Zrotation Xrotation Yrotation
    JOINT Chest2
    {
      OFFSET 0 8.0291 0.4195
      CHANNELS 3 Zrotation Xrotation Yrotation
      JOINT Chest3
      {
        OFFSET 0 9.9351 -2.2114
        CHANNELS 3 Zrotation Xrotation Yrotation
        JOINT Neck
        {
          OFFSET 0 22.3885 -0.4656
          CHANNELS 3 Zrotation Xrotation Yrotation
          JOINT Head
          {
            OFFSET -0.0001 12.643 3.4389
            CHANNELS 3 Zrotation Xrotation Yrotation
            End Site
            {
              OFFSET 0.0001 17.6655 0.5274
            }
          }
        }
        JOINT LeftCollar
        {
          OFFSET 2.2603 21.606 7.4023
          CHANNELS 3 Zrotation Xrotation Yrotation
          JOINT LeftShoulder
          {
            OFFSET 13.5163 -1.1332 -5.0146
            CHANNELS 3 Zrotation Xrotation Yrotation
            JOINT LeftElbow
            {
              OFFSET -0.0995 -28.05 -0.2431
              CHANNELS 3 Zrotation Xrotation Yrotation
              JOINT LeftWrist
              {
                OFFSET 0.0679 -23.3996 -0.1402
                CHANNELS 3 Zrotation Xrotation Yrotation
                JOINT LeftFinger1
                {
                  OFFSET 0.7932 -9.069 2.5189
                  CHANNELS 3 Zrotation Xrotation Yrotation
                  JOINT LeftFinger11
                  {
                    OFFSET -0.8272 -3.3923 0.5977
                    CHANNELS 3 Zrotation Xrotation Yrotation
                    JOINT LeftFinger12
                    {
                      OFFSET -0.5649 -2.3158 0.4082
                      CHANNELS 3 Zrotation Xrotation Yrotation
                      End Site
                      {
                        OFFSET -0.4919 -1.6479 0.2673
                      }
                    }
                  }
                }
                JOINT LeftFinger2
                {
                  OFFSET 0.9159 -9.2044 0.2193
                  CHANNELS 3 Zrotation Xrotation Yrotation
                  JOINT LeftFinger21
                  {
                    OFFSET 0.0117 -4.1944 -0.0248
                    CHANNELS 3 Zrotation Xrotation Yrotation
                    JOINT LeftFinger22
                    {
                      OFFSET 0.0071 -2.3249 -0.0142
                      CHANNELS 3 Zrotation Xrotation Yrotation
                      End Site
                      {
                        OFFSET -0.1475 -2.0882 0.0028
                      }
                    }
                  }
                }
                JOINT LeftFinger3
                {
                  OFFSET 0.6113 -8.7231 -2.0637
                  CHANNELS 3 Zrotation Xrotation Yrotation
                  JOINT LeftFinger31
                  {
                    OFFSET -0.1927 -3.8059 -0.2383
                    CHANNELS 3 Zrotation Xrotation Yrotation
                    JOINT LeftFinger32
                    {
                      OFFSET -0.1091 -2.1688 -0.1362
                      CHANNELS 3 Zrotation Xrotation Yrotation
                      End Site
                      {
                        OFFSET -0.2358 -1.9176 -0.0906
                      }
                    }
                  }
                }
                JOINT LeftFinger4
                {
                  OFFSET -0.6151 -8.0947 -3.5641
                  CHANNELS 3 Zrotation Xrotation Yrotation
                  JOINT LeftFinger41
                  {
                    OFFSET -0.4882 -2.341 -0.6462
                    CHANNELS 3 Zrotation Xrotation Yrotation
                    JOINT LeftFinger42
                    {
                      OFFSET -0.3575 -1.7167 -0.4742
                      CHANNELS 3 Zrotation Xrotation Yrotation
                      End Site
                      {
                        OFFSET -0.4187 -1.5237 -0.3496
                      }
                    }
                  }
                }
                JOINT LeftFinger0
                {
                  OFFSET -1.42 -1.8761 1.4223
                  CHANNELS 3 Zrotation Xrotation Yrotation
                  JOINT LeftFinger01
                  {
                    OFFSET -1.1471 -3.4929 2.6334
                    CHANNELS 3 Zrotation Xrotation Yrotation
                    JOINT LeftFinger02
                    {
                      OFFSET -0.823 -2.3 1.6571
                      CHANNELS 3 Zrotation Xrotation Yrotation
                      End Site
                      {
                        OFFSET -0.5822 -1.6914 1.1582
                      }
                    }
                  }
                }
              }
            }
          }
        }
        JOINT RightCollar
        {
          OFFSET -2.2603 21.606 7.4023
          CHANNELS 3 Zrotation Xrotation Yrotation
          JOINT RightShoulder
          {
            OFFSET -13.5187 -1.1334 -5.0155
            CHANNELS 3 Zrotation Xrotation Yrotation
            JOINT RightElbow
            {
              OFFSET 0.0994 -28.0499 -0.2431
              CHANNELS 3 Zrotation Xrotation Yrotation
              JOINT RightWrist
              {
                OFFSET -0.0679 -23.3996 -0.1402
                CHANNELS 3 Zrotation Xrotation Yrotation
                JOINT RightFinger1
                {
                  OFFSET -0.7932 -9.0691 2.5189
                  CHANNELS 3 Zrotation Xrotation Yrotation
                  JOINT RightFinger11
                  {
                    OFFSET 0.8272 -3.3923 0.5977
                    CHANNELS 3 Zrotation Xrotation Yrotation
                    JOINT RightFinger12
                    {
                      OFFSET 0.565 -2.3158 0.4082
                      CHANNELS 3 Zrotation Xrotation Yrotation
                      End Site
                      {
                        OFFSET 0.4919 -1.6479 0.2673
                      }
                    }
                  }
                }
                JOINT RightFinger2
                {
                  OFFSET -0.916 -9.2044 0.2193
                  CHANNELS 3 Zrotation Xrotation Yrotation
                  JOINT RightFinger21
                  {
                    OFFSET -0.0117 -4.1944 -0.0248
                    CHANNELS 3 Zrotation Xrotation Yrotation
                    JOINT RightFinger22
                    {
                      OFFSET -0.0071 -2.3249 -0.0142
                      CHANNELS 3 Zrotation Xrotation Yrotation
                      End Site
                      {
                        OFFSET 0.1475 -2.0882 0.0028
                      }
                    }
                  }
                }
                JOINT RightFinger3
                {
                  OFFSET -0.6113 -8.7231 -2.0637
                  CHANNELS 3 Zrotation Xrotation Yrotation
                  JOINT RightFinger31
                  {
                    OFFSET 0.1927 -3.8059 -0.2383
                    CHANNELS 3 Zrotation Xrotation Yrotation
                    JOINT RightFinger32
                    {
                      OFFSET 0.1091 -2.1688 -0.1362
                      CHANNELS 3 Zrotation Xrotation Yrotation
                      End Site
                      {
                        OFFSET 0.2358 -1.9176 -0.0906
                      }
                    }
                  }
                }
                JOINT RightFinger4
                {
                  OFFSET 0.6151 -8.0947 -3.564
                  CHANNELS 3 Zrotation Xrotation Yrotation
                  JOINT RightFinger41
                  {
                    OFFSET 0.4882 -2.341 -0.6462
                    CHANNELS 3 Zrotation Xrotation Yrotation
                    JOINT RightFinger42
                    {
                      OFFSET 0.3574 -1.7166 -0.4742
                      CHANNELS 3 Zrotation Xrotation Yrotation
                      End Site
                      {
                        OFFSET 0.4187 -1.5237 -0.3496
                      }
                    }
                  }
                }
                JOINT RightFinger0
                {
                  OFFSET 1.4199 -1.8761 1.4221
                  CHANNELS 3 Zrotation Xrotation Yrotation
                  JOINT RightFinger01
                  {
                    OFFSET 1.1472 -3.4929 2.6336
                    CHANNELS 3 Zrotation Xrotation Yrotation
                    JOINT RightFinger02
                    {
                      OFFSET 0.8229 -2.3 1.6571
                      CHANNELS 3 Zrotation Xrotation Yrotation
                      End Site
                      {
                        OFFSET 0.5822 -1.6914 1.1582
                      }
                    }
                  }
                }
              }
            }
          }
        }
      }
    }
  }
  JOINT RightHip
  {
    OFFSET -9.412 3.9771 -0.7758
    CHANNELS 3 Zrotation Xrotation Yrotation
    JOINT RightKnee
    {
      OFFSET -0.7531 -40.938 0
      CHANNELS 3 Zrotation Xrotation Yrotation
      JOINT RightAnkle
      {
        OFFSET 0 -40.1986 0
        CHANNELS 3 Zrotation Xrotation Yrotation
        JOINT RightToe
        {
          OFFSET 0 -4.4182 9.239
          CHANNELS 3 Zrotation Xrotation Yrotation
          End Site
          {
            OFFSET 0 0 6.1981
          }
        }
      }
    }
  }
  JOINT LeftHip
  {
    OFFSET 9.4119 3.9773 -0.7758
    CHANNELS 3 Zrotation Xrotation Yrotation
    JOINT LeftKnee
    {
      OFFSET 0.7532 -40.9383 0
      CHANNELS 3 Zrotation Xrotation Yrotation
      JOINT LeftAnkle
      {
        OFFSET 0 -40.1986 0
        CHANNELS 3 Zrotation Xrotation Yrotation
        JOINT LeftToe
        {
          OFFSET 0 -4.4182 9.239
          CHANNELS 3 Zrotation Xrotation Yrotation
          End Site
          {
            OFFSET 0 0 6.1981
          }
        }
      }
    }
  }
}
MOTION
Frames:	6
Frame Time:	0.0333333
2.42369e-005 3.30894 10.4536 -8.42123e-008 -82.0004 -4.31439e-008 -0.0186415 -3.06722 -0.152808 -0.0455868 -6.13435 -0.307279 -0.0455869 -6.13436 -0.307279 9.55242e-007 17.9983 -4.0167e-006 18.589 8.90915 3.75293 -15.833 14.1706 -8.6764 38.927 -43.9409 35.1103 -13.6038 2.63231 -35.2595 -44.6027 14.6416 25.0726 3.4159e-007 -5.53744e-006 -9.77345e-006 0 3.18055e-015 -0 -7.72648e-006 -8.62738e-006 -1.1458e-006 3.4159e-007 -5.53744e-006 -9.77345e-006 -0.0127871 0.00231915 8.66492e-005 -1.76194e-005 -8.46114e-006 -6.45437e-006 3.4159e-007 -5.53744e-006 -9.77345e-006 -0.016053 0.00299168 0.000849961 1.16861e-005 -2.68085e-006 3.26931e-006 3.4159e-007 -5.53744e-006 -9.77345e-006 -0.012614 0.00312856 0.00283119 -3.53113e-031 6.36111e-015 3.18055e-015 3.4159e-007 -5.53744e-006 -9.77345e-006 0 3.18055e-015 -0 -7.72648e-006 -8.62738e-006 -1.1458e-006 14.9496 14.3918 3.42641 -34.1547 -45.8335 -29.2455 12.9231 2.48568 35.4502 44.97 15.2842 -23.9726 -6.36111e-015 4.77083e-015 4.77083e-015 -1.27222e-014 1.59028e-015 9.54166e-015 1.76556e-031 6.36111e-015 -1.59028e-015 -6.36111e-015 4.77083e-015 4.77083e-015 0.0129472 0.00231902 -8.62777e-005 2.99261e-006 1.25379e-006 2.27928e-006 -6.36111e-015 4.77083e-015 4.77083e-015 0.0163334 0.00303218 -0.000869615 2.64834e-031 4.77083e-015 -3.18055e-015 -6.36111e-015 4.77083e-015 4.77083e-015 0.0145554 0.0036765 -0.00325288 -3.18055e-015 9.54166e-015 -3.18055e-015 -6.36111e-015 4.77083e-015 4.77083e-015 -1.27222e-014 1.59028e-015 9.54166e-015 1.76556e-031 6.36111e-015 -1.59028e-015 -16.9634 -14.9342 -50.8025 -2.0324 50.0104 0.770019 -3.95002 12.9028 0.0165597 -1.16386e-006 -3.68116e-007 -1.21065e-006 16.9597 -14.9363 50.7982 2.0292 50.0112 -0.772315 3.94758 12.9023 -0.0198806 -5.29669e-031 -6.36111e-015 -4.77083e-015 
0.000459285 3.62596 10.4522 4.84766e-008 -82.0004 7.01027e-008 -0.0171296 -3.35954 -0.152727 -0.0433599 -6.71901 -0.307257 -0.04336 -6.71902 -0.307258 1.47877e-006 17.9982 -5.88348e-006 18.3412 8.90237 3.70313 -15.3881 15.728 -7.38401 37.9279 -44.453 34.3959 -14.0575 2.71067 -35.2387 -44.6024 14.643 25.0712 2.85605e-006 -9.34531e-007 5.97977e-007 -6.36111e-015 0 -3.18055e-015 4.06435e-006 -1.37818e-006 3.67359e-006 2.85605e-006 -9.34531e-007 5.97977e-007 -0.0128234 0.00232757 8.62563e-005 -7.8745e-006 9.64852e-006 -2.69315e-006 2.85605e-006 -9.34531e-007 5.97977e-007 -0.0160008 0.00298708 0.00085671 -1.70475e-007 1.03302e-006 -3.10292e-006 2.85605e-006 -9.34531e-007 5.97977e-007 -0.0125871 0.00313325 0.00283834 -3.97984e-006 -8.25239e-006 -2.12211e-006 2.85605e-006 -9.34531e-007 5.97977e-007 -6.36111e-015 0 -3.18055e-015 4.06435e-006 -1.37818e-006 3.67359e-006 14.4685 15.9445 2.11094 -33.0271 -46.2777 -28.3928 13.3904 2.56565 35.4326 44.9698 15.285 -23.9718 -4.74407e-006 -3.14483e-006 -3.37745e-006 1.07668e-005 6.12357e-006 9.52372e-006 -7.39748e-008 -3.76085e-007 -1.57182e-006 -4.74407e-006 -3.14483e-006 -3.37745e-006 0.0129496 0.00232073 -7.57863e-005 1.4001e-005 -2.04176e-006 -1.00387e-006 -4.74407e-006 -3.14483e-006 -3.37745e-006 0.0163394 0.00303844 -0.000866193 -2.83577e-006 1.01226e-005 -2.35423e-006 -4.74407e-006 -3.14483e-006 -3.37745e-006 0.0146077 0.00368758 -0.00325014 4.74715e-006 9.56726e-006 3.37702e-006 -4.74407e-006 -3.14483e-006 -3.37745e-006 1.07668e-005 6.12357e-006 9.52372e-006 -7.39748e-008 -3.76085e-007 -1.57182e-006 -16.2617 -14.9169 -49.0543 -2.03159 49.9956 0.787933 -2.68745 12.8917 -1.48224 3.46739e-006 2.27746e-006 3.6539e-006 16.5051 -14.6976 49.6823 2.02808 49.9897 -0.783727 3.14159 12.8539 0.843344 3.73223e-006 2.01972e-006 6.08191e-007 
0.000851066 3.94293 10.4507 -1.83551e-007 -82.0004 -1.58149e-007 -0.0156103 -3.65283 -0.152834 -0.0411331 -7.30557 -0.307609 -0.0411333 -7.30561 -0.307609 5.33179e-007 17.9983 -2.72615e-006 18.0934 8.89585 3.65328 -14.9758 17.298 -6.09127 36.9105 -44.9565 33.6622 -14.5111 2.7889 -35.2166 -44.602 14.6443 25.0698 -2.92124e-006 1.39849e-006 -2.15852e-006 3.18055e-015 1.59028e-015 -6.36111e-015 -7.85021e-006 1.40703e-006 -1.13056e-006 -2.92124e-006 1.39849e-006 -2.15852e-006 -0.0128312 0.00232914 7.58659e-005 -1.58942e-007 1.39902e-006 -3.10556e-006 -2.92124e-006 1.39849e-006 -2.15852e-006 -0.016069 0.00300047 0.000849822 -8.82781e-032 -1.59028e-015 -3.18055e-015 -2.92124e-006 1.39849e-006 -2.15852e-006 -0.0126216 0.00312659 0.00281945 1.27222e-014 1.59028e-015 3.18055e-015 -2.92124e-006 1.39849e-006 -2.15852e-006 3.18055e-015 1.59028e-015 -6.36111e-015 -7.85021e-006 1.40703e-006 -1.13056e-006 14.0201 17.5106 0.795723 -31.881 -46.7099 -27.5207 13.8582 2.64539 35.4138 44.9696 15.2858 -23.971 3.18055e-015 1.43125e-014 -0 3.18055e-015 1.11319e-014 -7.95139e-015 3.18055e-015 7.95139e-015 -6.36111e-015 3.18055e-015 1.43125e-014 -0 0.0129247 0.0023018 -8.20232e-005 6.36111e-015 0 -0 3.18055e-015 1.43125e-014 -0 0.0163452 0.00301737 -0.000870205 -6.36111e-015 0 3.18055e-015 3.18055e-015 1.43125e-014 -0 0.0146093 0.00367648 -0.00327254 6.36111e-015 -3.18055e-015 -7.95139e-015 3.18055e-015 1.43125e-014 -0 3.18055e-015 1.11319e-014 -7.95139e-015 3.18055e-015 7.95139e-015 -6.36111e-015 -15.5606 -14.8788 -47.3049 -2.03085 49.9806 0.806303 -1.42426 12.8484 -2.98259 -2.25674e-006 5.50845e-006 -2.54658e-006 16.056 -14.4502 48.5693 2.02697 49.9682 -0.79524 2.33638 12.7937 1.70617 -1.61644e-007 -6.29047e-006 7.25896e-006 
0.00119544 4.25986 10.4491 4.8775e-008 -82.0004 4.31853e-008 -0.0141022 -3.94669 -0.153114 -0.0389448 -7.89331 -0.308306 -0.038945 -7.89333 -0.308307 8.17916e-007 17.9983 -3.37476e-006 17.8455 8.88956 3.6034 -14.5968 18.8782 -4.79732 35.8751 -45.4504 32.9094 -14.9649 2.86694 -35.1934 -44.6017 14.6456 25.0684 1.27222e-014 1.59028e-015 -3.18055e-015 6.36111e-015 1.59028e-015 -4.77083e-015 9.54166e-015 0 1.59028e-015 1.27222e-014 1.59028e-015 -3.18055e-015 -0.0128196 0.0023196 8.76057e-005 -3.18055e-015 -3.18055e-015 -4.77083e-015 1.27222e-014 1.59028e-015 -3.18055e-015 -0.0160104 0.00299779 0.000851141 -3.18055e-015 1.90833e-014 -3.18055e-015 1.27222e-014 1.59028e-015 -3.18055e-015 -0.0125706 0.0031136 0.00282466 -4.10813e-006 2.70513e-006 -3.66524e-006 1.27222e-014 1.59028e-015 -3.18055e-015 6.36111e-015 1.59028e-015 -4.77083e-015 9.54166e-015 0 1.59028e-015 13.6054 19.088 -0.520067 -30.7154 -47.1303 -26.6286 14.3257 2.72506 35.3938 44.9694 15.2866 -23.9702 -1.30271e-007 -2.6694e-006 -3.14939e-006 1.59028e-014 0 -1.59028e-015 6.36111e-015 -4.77083e-015 -1.59028e-015 -1.30271e-007 -2.6694e-006 -3.14939e-006 0.0129439 0.00233254 -9.47438e-005 3.18055e-015 0 -1.59028e-015 -1.30271e-007 -2.6694e-006 -3.14939e-006 0.0163293 0.00304734 -0.000886379 -3.18055e-015 0 -0 -1.30271e-007 -2.6694e-006 -3.14939e-006 0.0146104 0.00369494 -0.00326839 -3.18055e-015 1.59028e-015 -0 -1.30271e-007 -2.6694e-006 -3.14939e-006 1.59028e-014 0 -1.59028e-015 6.36111e-015 -4.77083e-015 -1.59028e-015 -14.8611 -14.8198 -45.5556 -2.03008 49.9657 0.825115 -0.162051 12.7727 -4.48287 -7.95139e-015 -3.18055e-015 4.77083e-015 15.6128 -14.1943 47.4595 2.02593 49.9467 -0.806854 1.5323 12.7217 2.56821 7.75422e-006 -5.24705e-006 4.87501e-006 
0.00149294 4.57677 10.4474 -1.76941e-008 -82.0004 2.50685e-008 -0.0126222 -4.24081 -0.153552 -0.0368293 -8.48154 -0.309321 -0.0368296 -8.48157 -0.309322 6.95749e-007 17.9983 -2.99729e-006 17.5975 8.88347 3.55346 -14.2521 20.4671 -3.501 34.8213 -45.9346 32.1373 -15.4188 2.94478 -35.1689 -44.6014 14.647 25.067 4.06357e-006 8.06042e-006 2.10101e-006 -4.41391e-032 1.59028e-015 1.59028e-015 3.18055e-015 1.59028e-015 -3.18055e-015 4.06357e-006 8.06042e-006 2.10101e-006 -0.0128273 0.00233308 8.84838e-005 1.48674e-006 -8.45332e-006 -2.41759e-006 4.06357e-006 8.06042e-006 2.10101e-006 -0.0160667 0.00298586 0.000853655 -1.27222e-014 0 -1.59028e-015 4.06357e-006 8.06042e-006 2.10101e-006 -0.0125943 0.00311564 0.00282025 9.54166e-015 1.59028e-015 4.77083e-015 4.06357e-006 8.06042e-006 2.10101e-006 -4.41391e-032 1.59028e-015 1.59028e-015 3.18055e-015 1.59028e-015 -3.18055e-015 13.225 20.675 -1.83754 -29.5308 -47.5383 -25.7167 14.793 2.8045 35.3725 44.9692 15.2873 -23.9694 6.58989e-006 -1.73321e-009 -1.98506e-006 -3.18055e-015 3.18055e-015 3.18055e-015 3.18055e-015 -1.59028e-015 3.18055e-015 6.58989e-006 -1.73321e-009 -1.98506e-006 0.0129341 0.00232126 -9.17594e-005 4.16458e-006 -3.37582e-006 8.31695e-006 6.58989e-006 -1.73321e-009 -1.98506e-006 0.016329 0.00304179 -0.000881197 3.16141e-006 5.24433e-006 8.61442e-006 6.58989e-006 -1.73321e-009 -1.98506e-006 0.0145505 0.00367351 -0.00326081 -1.32417e-031 4.77083e-015 1.59028e-015 6.58989e-006 -1.73321e-009 -1.98506e-006 -3.18055e-015 3.18055e-015 3.18055e-015 3.18055e-015 -1.59028e-015 3.18055e-015 -14.1643 -14.7401 -43.8075 -2.02934 49.9506 0.844335 1.09763 12.6646 -5.98154 1.65951e-006 -3.64951e-006 1.97074e-006 15.1756 -13.9297 46.3532 2.02461 49.9251 -0.818571 0.729676 12.638 3.42912 4.32864e-006 -1.51833e-006 1.21432e-006 
0.00174186 4.89365 10.4456 -2.7615e-007 -82.0004 -2.78178e-007 -0.0111793 -4.53484 -0.154096 -0.0348025 -9.06966 -0.31055 -0.0348025 -9.06966 -0.310551 4.07445e-007 17.9983 -1.5981e-006 17.3495 8.87758 3.5035 -13.9425 22.0627 -2.20111 33.7491 -46.4087 31.3458 -15.873 3.02236 -35.1433 -44.6011 14.6483 25.0655 0 0 -0 -3.83632e-006 -3.28336e-006 4.14211e-006 1.30091e-007 -1.45881e-006 3.11516e-006 0 0 -0 -0.0128343 0.00233323 9.81355e-005 -8.06544e-006 -1.12287e-007 -1.06156e-006 0 0 -0 -0.0160596 0.00300149 0.000868221 -6.47687e-008 1.60317e-006 -1.55759e-006 0 0 -0 -0.0125663 0.00312074 0.00282516 -6.48079e-008 -3.27942e-007 -1.55762e-006 0 0 -0 -3.83632e-006 -3.28336e-006 4.14211e-006 1.30091e-007 -1.45881e-006 3.11516e-006 12.8801 22.2695 -3.15788 -28.3281 -47.9329 -24.7858 15.2609 2.88369 35.3499 44.969 15.2881 -23.9685 3.18055e-015 3.18055e-015 1.59028e-015 -3.18055e-015 3.18055e-015 -0 3.18055e-015 0 -0 3.18055e-015 3.18055e-015 1.59028e-015 0.0129488 0.00232569 -9.2437e-005 4.41391e-032 -1.59028e-015 1.59028e-015 3.18055e-015 3.18055e-015 1.59028e-015 0.0163533 0.00303686 -0.000871815 6.36111e-015 -1.11319e-014 -3.18055e-015 3.18055e-015 3.18055e-015 1.59028e-015 0.0145848 0.00368172 -0.00326156 -6.36111e-015 0 -1.59028e-015 3.18055e-015 3.18055e-015 1.59028e-015 -3.18055e-015 3.18055e-015 -0 3.18055e-015 0 -0 -13.4712 -14.6397 -42.0617 -2.02846 49.9355 0.863911 2.35321 12.5244 -7.477 -7.08908e-007 7.78268e-007 -4.47266e-006 14.7448 -13.6572 45.2506 2.02346 49.9038 -0.830415 -0.0711772 12.5425 4.28858 -9.50125e-007 1.30952e-007 2.48292e-006 
